<?xml version="1.0" encoding="utf-8"?>
<!-- Generator: Adobe Illustrator 27.2.0, SVG Export Plug-In . SVG Version: 6.00 Build 0)  -->
<svg version="1.1" id="Ebene_1" xmlns="http://www.w3.org/2000/svg" xmlns:xlink="http://www.w3.org/1999/xlink" x="0px" y="0px"
	 viewBox="0 0 2267.7 2267.7" style="enable-background:new 0 0 2267.7 2267.7;" xml:space="preserve">
<g>
	<path d="M1399.3,1411h35.4v-184.8l49.2,184.8h40.1v-253.1h-35.4v151.5l-40.1-151.5h-49.2V1411z M1321.9,1411h39.8v-253.1h-39.8
		V1411z M1196.8,1411H1302v-36.2h-65.5v-217h-39.8V1411z M1079.3,1266.3V1194h18.1c14.1,0,20.2,8,20.2,26v19.5
		c0,20.3-9,26.8-23.9,26.8H1079.3z M1039.5,1411h39.8v-108.5h13.7c18.1,0,25,7.6,25,31.1v46.3c0,20.6,1.4,24.6,3.6,31.1h40.5
		c-4-9.4-4.3-18.4-4.3-30.7v-44.5c0-28.6-6.5-47.4-26.4-53.5v-0.7c17.7-7.2,26-23.9,26-49.9v-15.5c0-39.1-17.7-58.2-58.9-58.2h-58.9
		V1411z M899.9,1411h108.5v-36.2h-68.7v-77.7h54.6v-36.2h-54.6V1194h68.7v-36.2H899.9V1411z M783.8,1374.8v-77.7h17.7
		c18.1,0,25.7,7.2,25.7,30.7v22.1c0,18.8-7.2,25-20.6,25H783.8z M783.8,1260.9V1194H803c14.1,0,20.2,8,20.2,26v14.1
		c0,20.2-9,26.8-23.9,26.8H783.8z M744.1,1411h62.6c39.8,0,60.4-21,60.4-60v-21.7c0-26.8-8.3-45.6-29.7-52.8v-0.7
		c17.7-7.2,25.7-23.5,25.7-49.5v-10.1c0-39.1-17.7-58.2-58.9-58.2h-60V1411z"/>
</g>
<g>
	<path d="M1484.3,1109.6h39.8v-39.8h-39.8V1109.6z M1350.2,1025.7l17.7-127.7l18.1,127.7H1350.2z M1397.9,1109.6h39.8l-41.2-253.1
		h-53.9l-41.2,253.1h36.9l6.9-49.5h45.9L1397.9,1109.6z M1218.9,1109.6h39.8v-217h41.6v-36.2h-123v36.2h41.6V1109.6z M1079.3,965
		v-72.3h18.1c14.1,0,20.2,8,20.2,26v19.5c0,20.3-9,26.8-23.9,26.8H1079.3z M1039.5,1109.6h39.8v-108.5h13.7c18.1,0,25,7.6,25,31.1
		v46.3c0,20.6,1.4,24.6,3.6,31.1h40.5c-4-9.4-4.3-18.4-4.3-30.7v-44.5c0-28.6-6.5-47.4-26.4-53.5v-0.7c17.7-7.2,26-23.9,26-49.9
		v-15.5c0-39.1-17.7-58.2-58.9-58.2h-58.9V1109.6z M899.9,1109.6h108.5v-36.2h-68.7v-77.7h54.6v-36.2h-54.6v-66.9h68.7v-36.2H899.9
		V1109.6z M783.8,1073.5v-77.7h17.7c18.1,0,25.7,7.2,25.7,30.7v22.1c0,18.8-7.2,25-20.6,25H783.8z M783.8,959.6v-66.9H803
		c14.1,0,20.2,8,20.2,26v14.1c0,20.2-9,26.8-23.9,26.8H783.8z M744.1,1109.6h62.6c39.8,0,60.4-21,60.4-60v-21.7
		c0-26.8-8.3-45.6-29.7-52.8v-0.7c17.7-7.2,25.7-23.5,25.7-49.5v-10.1c0-39.1-17.7-58.2-58.9-58.2h-60V1109.6z"/>
</g>
</svg>
